<?xml version="1.0" standalone="no"?>
<!DOCTYPE svg PUBLIC "-//W3C//DTD SVG 20010904//EN"
 "http://www.w3.org/TR/2001/REC-SVG-20010904/DTD/svg10.dtd">
<svg version="1.0" xmlns="http://www.w3.org/2000/svg"
 width="941.000000pt" height="941.000000pt" viewBox="0 0 941.000000 941.000000"
 preserveAspectRatio="xMidYMid meet">
<metadata>
Created by potrace 1.14, written by Peter Selinger 2001-2017
</metadata>
<g transform="translate(0.000000,941.000000) scale(0.100000,-0.100000)"
fill="#000000" stroke="none">
<path d="M2144 7540 l-850 -850 0 -1703 1 -1702 1693 -1 c931 -1 1698 -4 1706
-7 14 -5 15 -34 2 -55 -4 -6 -4 -12 1 -12 12 0 10 -114 -2 -122 -6 -5 -6 -8 1
-8 9 0 12 -42 4 -60 -1 -3 -1 -9 0 -15 5 -26 2 -163 -4 -173 -4 -7 -3 -12 1
-12 10 0 10 -61 -1 -78 -4 -7 -4 -12 1 -12 6 0 9 -470 2 -505 -1 -5 0 -14 1
-20 3 -13 2 -286 0 -300 -1 -5 -1 -14 0 -20 1 -5 2 -76 2 -158 l0 -147 1704 0
1704 0 0 1703 0 1703 -1701 -1 c-1557 0 -1702 1 -1710 16 -4 9 -6 19 -2 23 8
8 8 220 -1 235 -4 6 -4 11 1 11 10 0 8 173 -1 189 -4 6 -4 11 1 11 9 0 8 134
-2 149 -3 6 -3 11 2 11 10 0 9 253 -1 269 -4 6 -4 11 1 11 10 0 8 173 -1 189
-4 6 -4 11 1 11 9 0 8 134 -2 149 -3 6 -3 11 2 11 10 0 9 253 -1 269 -4 6 -3
11 1 11 7 0 8 46 4 129 -1 8 -4 11 -7 8 -4 -3 -15 -2 -25 3 -12 7 -20 7 -24 0
-5 -8 -11 -8 -20 0 -9 8 -15 8 -20 0 -4 -6 -12 -7 -23 -1 -9 5 -26 5 -38 1
-12 -5 -25 -6 -28 -2 -8 7 -95 6 -103 -2 -4 -3 -12 -1 -19 5 -8 7 -14 7 -19
-1 -4 -7 -12 -7 -26 0 -10 6 -19 7 -19 3 0 -10 -41 -10 -56 0 -5 3 -16 2 -24
-3 -8 -5 -22 -5 -32 1 -10 5 -18 6 -18 1 0 -5 -20 -6 -44 -2 -24 3 -53 3 -65
-1 -12 -5 -21 -4 -21 1 0 6 -9 6 -25 0 -14 -5 -27 -5 -30 -1 -6 10 -31 9 -41
-2 -4 -3 -15 -2 -25 4 -13 6 -19 6 -19 0 0 -7 -8 -7 -22 -2 -13 5 -33 5 -46 0
-14 -6 -31 -5 -43 1 -13 7 -19 7 -19 1 0 -7 -8 -7 -23 -2 -13 5 -30 5 -39 0
-11 -6 -19 -5 -23 1 -4 7 -12 7 -25 0 -13 -7 -21 -7 -25 0 -5 7 -11 8 -19 1
-7 -6 -18 -6 -26 -1 -7 4 -23 4 -36 0 -12 -5 -25 -6 -28 -2 -8 7 -95 6 -103
-2 -4 -3 -12 -1 -19 5 -8 7 -14 7 -19 -1 -4 -7 -12 -7 -26 0 -10 6 -19 7 -19
3 0 -10 -41 -10 -56 0 -5 3 -16 2 -24 -3 -8 -5 -22 -5 -32 1 -10 5 -18 6 -18
1 0 -5 -20 -6 -44 -2 -24 3 -53 3 -65 -1 -12 -5 -21 -4 -21 1 0 6 -9 6 -25 0
-15 -6 -27 -6 -30 0 -3 6 -15 6 -30 0 -21 -8 -25 -6 -26 8 0 9 -1 394 -1 855
-1 460 -2 837 -2 837 -1 0 -384 -383 -852 -850z"/>
<path d="M6451 6691 c-7 -5 -21 -7 -30 -4 -15 4 -16 -61 -16 -841 0 -466 3
-846 7 -846 8 0 1688 1678 1688 1687 0 3 -7 3 -15 -1 -8 -3 -15 -1 -15 4 0 6
-9 6 -25 0 -15 -6 -27 -6 -30 0 -3 5 -15 6 -28 1 -13 -5 -30 -5 -39 0 -11 6
-19 5 -23 -1 -4 -6 -11 -8 -16 -5 -14 9 -89 11 -89 3 0 -4 -10 -4 -22 1 -13 5
-33 5 -45 0 -13 -5 -25 -4 -28 1 -3 5 -15 6 -28 1 -14 -5 -30 -5 -40 0 -11 7
-17 6 -17 0 0 -7 -8 -7 -23 -2 -13 5 -30 5 -39 0 -11 -6 -19 -5 -23 1 -4 7
-12 7 -25 0 -13 -7 -21 -7 -25 0 -5 7 -11 8 -19 1 -7 -6 -18 -6 -26 -1 -7 4
-23 4 -36 0 -12 -5 -25 -6 -28 -2 -8 7 -95 6 -103 -2 -4 -3 -12 -1 -19 5 -8 7
-14 7 -19 -1 -4 -7 -12 -7 -26 0 -10 6 -19 7 -19 3 0 -10 -41 -10 -56 0 -5 3
-16 2 -24 -3 -8 -5 -22 -5 -32 1 -10 5 -18 6 -18 1 0 -5 -20 -6 -44 -2 -24 3
-53 3 -65 -1 -12 -5 -21 -4 -21 1 0 6 -9 6 -25 0 -14 -5 -27 -5 -30 -1 -6 10
-31 9 -41 -2 -4 -3 -15 -2 -25 4 -13 6 -19 6 -19 0 0 -7 -8 -7 -22 -2 -13 5
-33 5 -46 0 -14 -6 -31 -5 -43 1 -13 7 -19 7 -19 1 0 -7 -8 -7 -23 -2 -13 5
-30 5 -39 0 -11 -6 -19 -5 -23 1 -4 6 -13 7 -23 1 -9 -5 -26 -5 -37 -1 -11 4
-30 4 -42 -1 -12 -4 -23 -4 -25 1 -2 5 -9 6 -17 1z"/>
</g>
</svg>
