<?xml version="1.0" standalone="no"?>
<!DOCTYPE svg PUBLIC "-//W3C//DTD SVG 20010904//EN"
 "http://www.w3.org/TR/2001/REC-SVG-20010904/DTD/svg10.dtd">
<svg version="1.0" xmlns="http://www.w3.org/2000/svg"
 width="688.000000pt" height="688.000000pt" viewBox="0 0 688.000000 688.000000"
 preserveAspectRatio="xMidYMid meet">
<metadata>
Created by potrace 1.11, written by Peter Selinger 2001-2013
</metadata>
<g transform="translate(0.000000,688.000000) scale(0.100000,-0.100000)"
fill="#000000" stroke="none">
<path d="M3340 5923 c-86 -5 -255 -25 -265 -33 -13 -9 -102 -37 -192 -60 -73
-19 -154 -56 -208 -94 -16 -11 -56 -35 -88 -51 -31 -17 -66 -38 -77 -48 -11
-9 -23 -17 -27 -17 -20 0 -209 -178 -238 -225 -11 -16 -41 -58 -67 -91 -26
-34 -48 -65 -48 -69 0 -4 -8 -19 -18 -33 -10 -15 -28 -52 -41 -82 -12 -30 -26
-64 -31 -75 -5 -11 -17 -47 -26 -80 -9 -33 -22 -71 -29 -85 -24 -46 -23 -549
1 -680 7 -41 15 -106 18 -145 5 -80 15 -135 25 -135 4 0 12 5 19 12 10 10 11
5 6 -20 -6 -31 9 -47 19 -19 5 14 7 9 30 -73 8 -30 21 -97 28 -147 6 -51 15
-93 19 -93 15 0 29 138 15 152 -3 3 -7 74 -10 159 -4 179 -13 269 -28 287 -5
7 -7 15 -4 19 4 3 2 14 -3 24 -7 12 -7 20 0 24 5 3 10 11 10 16 0 6 -5 7 -12
3 -8 -5 -9 0 -6 14 4 12 2 25 -3 28 -6 3 -5 12 2 20 10 12 10 14 0 12 -8 -2
-14 10 -15 34 -2 21 1 35 5 32 9 -5 39 35 39 53 0 19 -26 5 -38 -20 -9 -18
-10 -15 -5 18 3 30 2 36 -6 25 -10 -14 -16 -7 -11 15 7 36 6 74 -3 68 -7 -4
-7 0 -2 13 4 10 8 30 8 44 -1 14 3 33 8 43 6 9 6 16 2 15 -16 -6 -10 53 7 77
4 6 13 48 20 95 6 46 18 96 25 110 7 14 17 44 21 65 4 22 17 53 30 68 13 16
24 33 24 38 0 26 159 206 247 280 92 77 216 149 258 149 9 0 25 5 36 10 14 8
19 7 19 -1 0 -6 7 -9 15 -6 22 9 28 -10 8 -23 -16 -10 -16 -11 2 -6 33 9 107
10 155 2 34 -5 41 -4 30 4 -15 12 -2 10 58 -6 17 -5 22 -2 22 11 0 15 7 17 51
11 34 -5 49 -4 44 4 -3 6 3 10 15 10 14 0 19 4 14 13 -4 6 3 3 15 -8 17 -15
24 -16 30 -7 5 9 17 11 34 6 35 -8 36 13 2 26 -14 5 -25 14 -25 20 0 13 30 -2
54 -26 10 -10 16 -11 16 -4 0 8 9 10 26 6 21 -6 25 -4 21 8 -4 9 -2 16 3 16 6
0 10 -7 10 -16 0 -8 5 -12 10 -9 6 4 7 11 4 17 -5 8 -1 9 11 5 9 -4 23 -3 30
3 8 7 18 4 33 -11 12 -11 22 -15 22 -9 0 5 5 10 10 10 6 0 10 -10 10 -22 0
-21 0 -21 14 -3 12 16 16 17 30 6 9 -7 16 -9 16 -3 0 12 33 10 42 -3 13 -18
72 -13 91 8 9 11 17 15 17 9 0 -20 28 -13 35 8 3 11 11 20 16 20 6 0 7 -10 4
-22 -6 -19 -5 -21 6 -10 7 7 14 22 14 35 0 17 7 23 29 25 15 2 26 0 23 -5 -3
-5 7 -7 24 -5 16 2 29 9 29 14 0 5 14 0 30 -12 18 -13 46 -22 65 -22 19 0 35
-4 35 -9 0 -5 7 -9 15 -9 8 0 15 -4 15 -9 0 -4 26 -22 58 -39 46 -25 151 -110
184 -149 4 -4 33 -35 64 -68 32 -33 63 -68 68 -77 47 -74 75 -108 101 -123 20
-12 25 -19 16 -23 -7 -2 -17 2 -22 9 -5 9 -9 10 -9 3 0 -7 18 -36 40 -65 22
-30 40 -64 40 -77 0 -12 7 -25 16 -29 12 -4 14 -14 10 -35 -3 -17 0 -38 8 -51
8 -12 17 -44 21 -70 4 -34 10 -47 19 -44 15 6 46 -26 46 -46 0 -7 -5 -18 -11
-24 -8 -8 -5 -17 11 -33 l22 -22 -3 44 c-2 24 1 49 5 56 4 6 2 21 -4 33 -6 11
-9 27 -6 35 7 18 -12 115 -25 129 -5 5 -9 24 -9 42 0 19 -9 59 -20 90 -11 32
-20 64 -20 72 0 8 -25 51 -55 96 -30 45 -55 89 -55 98 0 9 -8 18 -19 22 -10 3
-21 18 -24 33 -4 19 -17 33 -41 45 -23 11 -36 24 -36 36 0 11 -9 23 -21 26
-21 7 -96 72 -147 128 -14 15 -30 27 -36 27 -6 0 -31 16 -54 35 -24 19 -83 53
-130 77 -48 23 -98 50 -111 60 -13 10 -39 18 -58 18 -18 0 -44 7 -56 15 -12 8
-52 21 -87 29 -36 8 -83 19 -105 25 -39 10 -121 9 -131 -2 -7 -6 -44 3 -44 12
0 6 -34 8 -110 4z m565 -173 c3 -5 2 -10 -4 -10 -5 0 -13 5 -16 10 -3 6 -2 10
4 10 5 0 13 -4 16 -10z m-505 -90 c0 -5 -2 -10 -4 -10 -3 0 -8 5 -11 10 -3 6
-1 10 4 10 6 0 11 -4 11 -10z m320 -10 c0 -5 -5 -10 -11 -10 -5 0 -7 5 -4 10
3 6 8 10 11 10 2 0 4 -4 4 -10z m-1633 -872 c-3 -8 -6 -5 -6 6 -1 11 2 17 5
13 3 -3 4 -12 1 -19z m0 -530 c-3 -7 -5 -2 -5 12 0 14 2 19 5 13 2 -7 2 -19 0
-25z m-27 -213 c0 -30 -4 -55 -10 -55 -11 0 -14 69 -4 94 11 27 14 18 14 -39z"/>
<path d="M3635 5560 c-3 -5 -1 -10 4 -10 6 0 11 5 11 10 0 6 -2 10 -4 10 -3 0
-8 -4 -11 -10z"/>
<path d="M4731 4614 c0 -11 3 -14 6 -6 3 7 2 16 -1 19 -3 4 -6 -2 -5 -13z"/>
<path d="M4741 4464 c0 -11 3 -14 6 -6 3 7 2 16 -1 19 -3 4 -6 -2 -5 -13z"/>
<path d="M4772 4375 c0 -16 2 -22 5 -12 2 9 2 23 0 30 -3 6 -5 -1 -5 -18z"/>
<path d="M3956 4315 c17 -13 14 -14 -36 -10 -30 2 -76 7 -102 11 -29 3 -54 1
-65 -6 -17 -11 -17 -11 1 -5 13 4 6 -8 -19 -34 -22 -22 -43 -38 -47 -35 -4 3
-8 -1 -8 -9 0 -8 -7 -18 -16 -21 -12 -5 -15 -2 -10 11 6 14 4 15 -5 6 -6 -6
-9 -20 -5 -30 6 -15 9 -15 16 -3 5 8 13 11 17 6 10 -9 -26 -38 -38 -30 -5 3
-9 1 -9 -5 0 -6 13 -9 29 -8 16 1 28 4 26 7 -2 3 8 6 21 6 13 1 24 -1 24 -5 0
-14 108 -2 167 18 37 12 87 21 123 21 34 0 71 5 82 11 11 6 18 7 15 2 -3 -4 6
-13 19 -20 13 -6 22 -8 20 -4 -3 4 24 7 59 6 35 0 67 3 71 7 13 13 -16 36 -39
31 -18 -4 -19 -3 -7 6 12 9 9 11 -15 11 -16 0 -45 9 -63 20 -18 11 -40 20 -50
20 -14 0 -15 -2 -2 -10 8 -5 12 -11 9 -14 -8 -8 -49 6 -43 15 6 10 -38 22 -63
17 -14 -4 -10 -8 17 -21 34 -16 34 -16 5 -10 -35 7 -55 21 -55 38 0 7 -7 16
-16 19 -26 10 -29 7 -8 -9z"/>
<path d="M2965 4280 c5 -7 -18 -10 -68 -9 -41 1 -83 -3 -93 -9 -13 -8 -14 -11
-5 -12 8 0 12 -3 8 -6 -3 -3 -22 -1 -42 6 -27 9 -43 9 -59 2 -11 -6 -34 -13
-51 -15 -16 -2 -39 -8 -49 -12 -14 -6 -17 -5 -12 3 4 7 25 15 47 18 22 4 42
11 45 16 3 5 -6 6 -21 2 -15 -4 -51 -7 -80 -8 -29 0 -51 -4 -49 -7 2 -4 -3 -9
-10 -12 -8 -3 -16 -2 -18 3 -2 5 -14 2 -28 -6 -21 -11 -22 -13 -5 -11 11 1 20
-2 20 -8 0 -5 -5 -9 -12 -7 -7 2 -13 -2 -13 -8 0 -5 -5 -10 -11 -10 -5 0 -7 6
-3 13 4 6 -2 3 -14 -7 -23 -20 -30 -32 -12 -21 6 3 10 1 10 -5 0 -5 -15 -20
-32 -31 -26 -16 -28 -20 -10 -16 12 3 20 1 16 -4 -3 -5 -14 -9 -24 -9 -22 0
-32 -13 -36 -47 -1 -15 2 -22 9 -20 7 3 11 9 10 15 -3 12 52 26 67 17 5 -3 10
-2 10 3 0 5 15 7 33 5 l32 -4 -25 16 c-24 16 -24 16 28 12 53 -4 66 4 35 22
-29 17 5 13 39 -5 16 -9 27 -11 24 -6 -8 13 17 22 64 22 21 0 41 6 43 13 3 6
6 8 6 2 1 -6 27 -10 58 -9 33 1 84 -8 117 -18 43 -14 61 -16 66 -8 4 7 20 9
41 5 66 -12 91 -12 95 0 3 7 15 10 30 7 17 -3 24 0 24 12 0 9 -6 16 -14 16 -8
0 -16 6 -19 13 -4 10 3 12 24 9 27 -4 34 3 27 25 -2 4 -9 8 -17 10 -8 1 -17 6
-20 11 -9 13 -52 35 -58 29 -2 -3 4 -8 15 -11 11 -4 23 -13 26 -21 7 -19 -8
-19 -24 0 -7 8 -18 15 -24 14 -7 0 -6 -2 2 -6 6 -2 12 -12 12 -21 0 -12 -5 -9
-17 9 -9 15 -33 33 -55 40 -21 7 -38 16 -38 21 0 4 -5 8 -11 8 -5 0 -7 -5 -4
-10z m-220 -40 c3 -5 1 -10 -4 -10 -6 0 -11 5 -11 10 0 6 2 10 4 10 3 0 8 -4
11 -10z m-32 -17 c-7 -2 -19 -2 -25 0 -7 3 -2 5 12 5 14 0 19 -2 13 -5z m345
-18 c20 -14 31 -25 23 -25 -7 0 -26 11 -43 25 -16 14 -27 25 -23 25 3 0 23
-11 43 -25z m-618 -105 c0 -5 -4 -10 -10 -10 -5 0 -10 5 -10 10 0 6 5 10 10
10 6 0 10 -4 10 -10z"/>
<path d="M3695 4279 c-4 -6 -5 -12 -2 -15 2 -3 7 2 10 11 7 17 1 20 -8 4z"/>
<path d="M3650 4259 c0 -5 5 -7 10 -4 6 3 10 8 10 11 0 2 -4 4 -10 4 -5 0 -10
-5 -10 -11z"/>
<path d="M3601 4233 c-10 -26 -10 -27 4 -9 8 11 15 23 15 28 0 15 -7 8 -19
-19z"/>
<path d="M3570 4178 c-12 -22 -12 -22 6 -6 10 10 15 20 12 24 -4 3 -12 -5 -18
-18z"/>
<path d="M4747 4183 c-13 -12 -7 -60 8 -73 13 -11 15 -6 15 34 0 43 -7 55 -23
39z"/>
<path d="M4328 4173 c7 -3 16 -2 19 1 4 3 -2 6 -13 5 -11 0 -14 -3 -6 -6z"/>
<path d="M4620 4151 c0 -17 2 -31 4 -31 8 0 13 51 5 56 -5 3 -9 -9 -9 -25z"/>
<path d="M3768 4143 c6 -2 18 -2 25 0 6 3 1 5 -13 5 -14 0 -19 -2 -12 -5z"/>
<path d="M3755 4088 c-11 -7 -36 -13 -55 -14 -52 -2 -53 -3 -46 -19 3 -10 -1
-15 -12 -16 -10 0 -12 -3 -4 -6 6 -2 12 -16 12 -29 0 -21 3 -23 19 -14 35 18
45 11 22 -14 -33 -35 -19 -47 47 -42 31 3 61 1 68 -5 8 -7 14 -7 19 1 3 6 11
8 16 4 5 -3 8 0 7 7 -2 8 10 14 30 16 24 2 31 0 26 -10 -5 -8 -2 -8 9 2 14 11
22 11 51 -3 41 -19 76 -21 76 -3 0 8 3 8 9 -2 6 -9 15 -11 27 -6 25 11 102 7
126 -6 28 -15 48 -5 41 22 -4 15 -3 20 5 15 7 -4 12 -1 12 8 0 31 -80 86 -145
100 -16 3 -41 9 -55 12 -58 13 -285 15 -305 2z m225 -17 c0 -3 -5 -13 -10 -21
-7 -11 -10 -11 -10 -2 0 8 -5 10 -12 6 -11 -7 -138 -13 -138 -7 0 1 12 9 28
18 26 14 142 19 142 6z m185 -36 c23 -13 47 -31 55 -39 11 -14 9 -16 -12 -16
-13 0 -28 4 -33 8 -6 5 -29 15 -52 22 -24 7 -43 17 -43 22 0 4 -13 8 -30 8
-16 0 -30 5 -30 11 0 5 -4 7 -10 4 -5 -3 -10 0 -10 8 0 21 114 2 165 -28z
m-380 -5 c-10 -11 -20 -18 -22 -16 -6 5 30 44 36 39 2 -1 -4 -12 -14 -23z"/>
<path d="M2915 4070 c-27 -5 -93 -17 -145 -26 -52 -10 -116 -28 -141 -40 -56
-28 -109 -71 -109 -89 0 -8 -7 -18 -16 -23 -10 -6 -14 -14 -9 -22 5 -9 22 -10
59 -5 28 3 89 7 136 7 47 0 91 4 98 10 9 8 12 6 12 -8 0 -16 2 -17 10 -4 9 13
10 13 10 0 0 -9 3 -11 8 -5 4 6 17 19 30 29 22 19 23 19 38 -2 20 -29 28 -28
42 6 6 15 9 18 7 7 -4 -17 0 -20 33 -20 22 0 44 7 55 18 9 9 32 17 51 17 45 0
54 15 24 40 -20 17 -21 19 -5 20 13 0 17 6 15 23 -2 13 2 21 10 20 6 -2 12 1
12 6 0 14 -28 34 -53 36 -93 12 -128 13 -172 5z m-103 -52 c-7 -7 -12 -8 -12
-2 0 6 3 14 7 17 3 4 9 5 12 2 2 -3 -1 -11 -7 -17z m68 10 c0 -4 -11 -7 -25
-6 -14 1 -25 6 -25 10 0 4 11 7 25 6 14 -1 25 -6 25 -10z m-100 -12 c0 -19
-20 -32 -20 -14 -1 9 -4 9 -13 -3 -17 -21 -45 -30 -51 -16 -2 7 -8 2 -11 -10
-8 -26 -16 -28 -33 -11 -9 9 -15 10 -20 2 -4 -6 -18 -16 -32 -23 -21 -10 -19
-7 8 17 19 16 61 39 95 50 75 26 77 26 77 8z"/>
<path d="M2325 4050 c3 -5 8 -10 11 -10 2 0 4 5 4 10 0 6 -5 10 -11 10 -5 0
-7 -4 -4 -10z"/>
<path d="M4886 3855 c-10 -8 -23 -16 -27 -17 -8 -3 23 -184 33 -194 10 -10 48
110 48 151 0 74 -15 90 -54 60z"/>
<path d="M2975 3838 c-22 -11 -42 -24 -45 -28 -3 -4 -12 -10 -20 -13 -8 -4 3
-4 25 0 39 6 76 24 103 50 22 21 -17 15 -63 -9z"/>
<path d="M1866 3812 c-7 -12 21 -117 46 -171 13 -29 23 -40 30 -33 7 7 6 17
-2 32 -8 15 -10 42 -6 78 6 48 4 58 -15 79 -23 23 -44 30 -53 15z"/>
<path d="M4700 3590 c-11 -20 -6 -40 9 -40 12 0 20 49 10 56 -4 2 -13 -5 -19
-16z"/>
<path d="M2161 3529 c0 -19 5 -43 10 -54 6 -13 7 -4 3 30 -8 60 -14 72 -13 24z"/>
<path d="M2170 3430 c0 -5 5 -10 11 -10 5 0 7 5 4 10 -3 6 -8 10 -11 10 -2 0
-4 -4 -4 -10z"/>
<path d="M2175 3391 c-3 -5 -1 -12 5 -16 5 -3 10 1 10 9 0 18 -6 21 -15 7z"/>
<path d="M2176 3331 c-9 -14 -3 -71 8 -78 5 -4 7 4 3 17 -3 13 -1 30 5 37 8
10 8 17 1 24 -7 7 -13 7 -17 0z"/>
<path d="M3103 3283 c11 -3 50 -16 89 -29 48 -16 66 -19 58 -9 -15 19 -97 45
-134 44 -19 -1 -24 -3 -13 -6z"/>
<path d="M3590 3274 c-46 -16 -74 -34 -52 -34 6 0 29 7 50 15 22 9 43 15 48
14 19 -3 34 1 34 11 0 14 -27 12 -80 -6z"/>
<path d="M2070 3246 c0 -8 5 -18 10 -21 6 -3 10 1 10 9 0 8 -4 18 -10 21 -5 3
-10 -1 -10 -9z"/>
<path d="M3090 3241 c6 -12 15 -21 20 -21 18 0 11 19 -11 30 -19 11 -20 10 -9
-9z"/>
<path d="M3126 3214 c-4 -9 -4 -19 -1 -22 2 -3 7 3 11 12 4 9 4 19 1 22 -2 3
-7 -3 -11 -12z"/>
<path d="M2738 3170 c-25 -27 -51 -64 -56 -82 -15 -51 -22 -98 -14 -98 15 0
36 19 30 26 -4 4 0 19 10 33 10 14 24 44 31 66 8 22 17 42 20 45 10 8 33 52
29 56 -2 2 -25 -19 -50 -46z"/>
<path d="M2170 3190 c0 -5 5 -10 10 -10 6 0 10 5 10 10 0 6 -4 10 -10 10 -5 0
-10 -4 -10 -10z"/>
<path d="M3474 3190 c-17 -16 -153 -29 -186 -18 -23 8 -32 8 -38 -2 -5 -9 -9
-9 -14 -1 -8 12 -66 11 -66 -1 0 -4 7 -8 15 -8 17 0 20 -16 6 -25 -5 -3 -13
-1 -16 5 -5 8 -12 7 -23 -2 -11 -10 -16 -10 -19 -1 -2 7 -12 9 -20 6 -12 -5
-15 -2 -10 10 8 22 -16 22 -34 0 -10 -12 -11 -17 -2 -20 6 -2 9 -15 7 -29 -3
-17 0 -24 12 -24 11 0 15 6 12 18 -4 12 1 18 13 19 11 1 19 -2 19 -8 0 -5 -4
-9 -10 -9 -5 0 -10 -5 -10 -11 0 -8 4 -8 13 -1 7 6 23 9 35 5 12 -3 22 -1 22
5 0 5 7 13 16 16 10 4 18 -3 26 -24 9 -27 28 -33 28 -9 0 6 -4 7 -10 4 -5 -3
-10 1 -10 9 0 9 4 16 9 16 5 0 11 8 13 18 3 14 5 13 10 -6 4 -14 2 -20 -5 -15
-7 4 -8 0 -4 -11 4 -10 2 -27 -4 -39 -7 -15 -2 -13 16 8 14 17 24 38 21 47 -2
10 1 21 6 25 7 3 8 1 4 -5 -4 -7 -3 -12 2 -12 5 0 13 -9 18 -20 8 -19 11 -19
32 -5 21 15 33 43 13 31 -5 -4 -8 2 -6 11 4 26 79 20 110 -10 35 -33 53 -47
60 -47 11 0 4 39 -7 43 -7 2 -10 8 -6 12 4 4 19 0 34 -10 19 -12 29 -14 34 -6
3 7 14 9 23 5 9 -3 15 -10 12 -14 -3 -5 -1 -11 5 -15 5 -3 10 -2 10 4 0 6 6 9
13 7 6 -1 9 -1 5 1 -5 3 -8 11 -8 19 0 9 -4 12 -10 9 -5 -3 -15 -3 -22 1 -8 5
-6 10 7 14 18 6 18 8 -4 19 -15 8 -21 9 -17 2 5 -8 -1 -8 -20 -1 -19 8 -29 8
-34 0 -4 -7 -15 -4 -32 9 -14 12 -29 16 -34 11z"/>
<path d="M3565 3190 c-3 -5 -1 -10 4 -10 6 0 11 5 11 10 0 6 -2 10 -4 10 -3 0
-8 -4 -11 -10z"/>
<path d="M3635 3170 c3 -5 10 -10 16 -10 5 0 9 5 9 10 0 6 -7 10 -16 10 -8 0
-12 -4 -9 -10z"/>
<path d="M3027 3163 c-10 -9 -9 -23 1 -23 5 0 9 7 9 15 0 17 -1 18 -10 8z"/>
<path d="M3690 3140 c0 -5 9 -14 20 -20 11 -6 20 -9 20 -8 0 2 -9 11 -20 21
-11 9 -20 13 -20 7z"/>
<path d="M3402 3110 c-1 -28 2 -31 25 -28 26 3 46 28 23 28 -6 0 -8 -5 -4 -12
4 -7 3 -8 -5 -4 -6 4 -10 15 -9 24 2 9 -4 18 -13 20 -12 2 -16 -5 -17 -28z"/>
<path d="M3013 3114 c0 -7 6 -10 14 -7 19 8 16 -14 -4 -26 -16 -9 -16 -10 -1
-11 9 0 18 -8 21 -17 2 -10 3 2 3 27 0 35 -4 46 -17 46 -8 0 -16 -6 -16 -12z"/>
<path d="M2195 3090 c-3 -5 -2 -10 4 -10 5 0 13 5 16 10 3 6 2 10 -4 10 -5 0
-13 -4 -16 -10z"/>
<path d="M4065 3080 c3 -5 8 -10 11 -10 2 0 4 5 4 10 0 6 -5 10 -11 10 -5 0
-7 -4 -4 -10z"/>
<path d="M2750 3059 c0 -5 5 -7 10 -4 6 3 10 8 10 11 0 2 -4 4 -10 4 -5 0 -10
-5 -10 -11z"/>
<path d="M3060 3059 c0 -5 5 -7 10 -4 6 3 10 8 10 11 0 2 -4 4 -10 4 -5 0 -10
-5 -10 -11z"/>
<path d="M3470 3059 c0 -5 5 -7 10 -4 6 3 10 8 10 11 0 2 -4 4 -10 4 -5 0 -10
-5 -10 -11z"/>
<path d="M3520 3060 c0 -5 5 -10 11 -10 5 0 7 5 4 10 -3 6 -8 10 -11 10 -2 0
-4 -4 -4 -10z"/>
<path d="M2721 3034 c0 -11 3 -14 6 -6 3 7 2 16 -1 19 -3 4 -6 -2 -5 -13z"/>
<path d="M2795 3039 c-4 -6 -5 -12 -2 -15 2 -3 7 2 10 11 7 17 1 20 -8 4z"/>
<path d="M3440 3035 c-10 -12 -10 -15 4 -15 9 0 16 7 16 15 0 8 -2 15 -4 15
-2 0 -9 -7 -16 -15z"/>
<path d="M2230 3020 c0 -5 5 -10 10 -10 6 0 10 5 10 10 0 6 -4 10 -10 10 -5 0
-10 -4 -10 -10z"/>
<path d="M3100 3009 c0 -5 5 -7 10 -4 6 3 10 8 10 11 0 2 -4 4 -10 4 -5 0 -10
-5 -10 -11z"/>
<path d="M2217 2969 c4 -13 8 -18 11 -10 2 7 -1 18 -6 23 -8 8 -9 4 -5 -13z"/>
<path d="M2696 2974 c-4 -10 -1 -14 6 -12 15 5 23 28 10 28 -5 0 -13 -7 -16
-16z"/>
<path d="M2245 2923 c12 -14 12 -18 -3 -30 -9 -8 -12 -12 -5 -9 6 4 13 2 15
-4 2 -6 9 -6 18 0 13 8 11 13 -12 35 -16 14 -21 18 -13 8z"/>
<path d="M2854 2878 c-10 -16 11 -35 74 -66 37 -18 82 -33 101 -34 18 -1 35
-8 38 -14 2 -6 17 -10 33 -8 16 2 48 -3 72 -12 60 -21 108 -28 108 -15 0 6 15
12 33 12 29 2 30 2 5 6 -16 3 -30 12 -34 25 -4 14 -9 17 -17 9 -15 -15 -60
-14 -75 1 -7 7 -12 20 -12 30 0 25 -7 23 -37 -12 -31 -37 -50 -38 -65 -2 -16
37 -18 38 -27 23 -7 -10 -10 -9 -16 8 -3 11 -12 21 -18 21 -9 0 -9 3 1 8 6 5
37 7 68 6 40 -2 53 1 46 8 -12 12 -271 18 -278 6z m409 -135 c-7 -2 -19 -2
-25 0 -7 3 -2 5 12 5 14 0 19 -2 13 -5z"/>
<path d="M3645 2881 c-35 -5 -31 -6 30 -11 68 -5 70 -6 73 -33 2 -16 -1 -34
-7 -41 -9 -11 -3 -12 35 -5 55 10 122 46 140 74 13 20 10 20 -109 21 -67 0
-140 -2 -162 -5z"/>
<path d="M3451 2867 c-5 -5 -35 -9 -68 -8 -239 3 -223 4 -223 -7 0 -4 18 -6
40 -4 22 2 48 1 58 -3 9 -4 47 -6 84 -5 56 1 67 -1 71 -17 4 -16 5 -16 6 -1 0
10 11 20 24 22 57 12 97 14 97 5 0 -5 9 -4 20 3 11 7 20 15 20 18 0 10 -120 6
-129 -3z"/>
<path d="M2254 2844 c3 -9 6 -19 6 -24 0 -4 7 -10 15 -14 14 -5 13 -2 0 24
-16 31 -32 42 -21 14z"/>
<path d="M2410 2829 c0 -5 5 -7 10 -4 6 3 10 8 10 11 0 2 -4 4 -10 4 -5 0 -10
-5 -10 -11z"/>
<path d="M3633 2793 c-26 -27 -61 -30 -78 -7 -10 15 -13 13 -18 -13 -6 -29 -7
-30 -59 -25 -29 2 -56 9 -60 16 -6 8 -8 8 -8 -1 0 -7 -15 -17 -32 -22 -33 -9
-33 -9 -5 -10 16 -1 26 -5 22 -11 -9 -14 8 -13 23 2 9 9 12 9 12 -1 0 -7 4
-10 9 -7 5 3 28 8 51 10 24 2 46 10 50 16 4 7 13 9 20 5 8 -5 11 -4 7 2 -6 10
53 22 117 24 17 0 24 3 16 6 -8 4 -21 14 -30 23 -14 16 -16 15 -37 -7z"/>
<path d="M2236 2781 c-4 -5 -2 -12 4 -16 5 -3 10 -1 10 4 0 6 9 11 20 11 11 0
20 -5 20 -11 0 -5 5 -7 10 -4 19 12 10 21 -24 23 -19 1 -37 -2 -40 -7z"/>
<path d="M2500 2749 c-7 -11 -10 -23 -7 -25 2 -2 9 7 15 21 14 30 7 33 -8 4z"/>
<path d="M2240 2740 c0 -5 4 -10 9 -10 6 0 13 5 16 10 3 6 -1 10 -9 10 -9 0
-16 -4 -16 -10z"/>
<path d="M2298 2743 c7 -3 16 -2 19 1 4 3 -2 6 -13 5 -11 0 -14 -3 -6 -6z"/>
<path d="M3325 2720 c3 -5 8 -10 11 -10 2 0 4 5 4 10 0 6 -5 10 -11 10 -5 0
-7 -4 -4 -10z"/>
<path d="M2265 2706 l-30 -14 28 -11 c36 -14 34 -15 39 14 6 28 4 29 -37 11z"/>
<path d="M2494 2705 c-18 -14 -18 -14 4 -8 12 3 22 9 22 14 0 12 -3 11 -26 -6z"/>
<path d="M2415 2663 c11 -3 24 -10 28 -17 6 -7 7 -6 4 4 -2 8 -14 16 -28 17
-19 1 -20 1 -4 -4z"/>
<path d="M2292 2638 c-19 -19 -14 -29 8 -16 20 13 27 28 12 28 -4 0 -13 -5
-20 -12z"/>
<path d="M2460 2631 c0 -6 -8 -8 -17 -5 -16 5 -16 4 0 -6 13 -8 22 -9 29 -2 6
6 6 12 -1 16 -6 4 -11 3 -11 -3z"/>
<path d="M2301 2591 c-14 -26 -2 -52 33 -71 14 -7 26 -17 26 -22 0 -5 -4 -6
-10 -3 -5 3 -10 2 -10 -4 0 -5 6 -12 13 -14 9 -4 8 -8 -3 -16 -13 -10 -13 -12
0 -21 8 -5 23 -10 32 -10 21 0 32 -33 19 -57 -10 -20 11 -54 42 -66 9 -3 17
-14 17 -23 0 -9 11 -25 25 -35 14 -12 22 -26 18 -34 -4 -11 3 -15 27 -15 26 0
30 -3 26 -18 -4 -13 1 -23 19 -32 14 -7 25 -19 25 -27 0 -7 5 -13 10 -13 13 0
76 -71 72 -82 -1 -4 5 -8 13 -8 8 0 15 -4 15 -10 0 -5 11 -12 25 -16 14 -3 25
-10 25 -15 0 -5 8 -9 19 -9 14 0 18 -6 15 -26 -2 -24 0 -26 27 -22 27 4 34 -2
30 -26 -1 -5 7 -6 18 -3 14 3 18 1 14 -9 -3 -8 1 -14 8 -14 6 0 55 -21 108
-46 130 -62 191 -84 251 -89 14 -1 50 -8 80 -14 63 -15 348 -22 356 -9 3 4 17
8 31 8 27 0 105 20 113 30 3 3 11 5 19 5 7 0 20 10 29 23 13 20 13 22 -2 22
-9 0 -16 5 -16 12 0 7 -12 -4 -26 -23 -19 -25 -24 -28 -19 -11 4 13 2 22 -4
22 -6 0 -11 -4 -11 -8 0 -4 -15 -15 -34 -23 -31 -14 -34 -14 -29 0 2 9 -3 6
-13 -6 -9 -13 -25 -23 -35 -23 -13 0 -19 7 -18 23 0 21 1 21 9 2 7 -18 9 -18
15 -3 4 9 4 22 0 28 -4 6 -2 9 3 8 5 -2 19 8 31 21 12 13 21 19 21 13 0 -6 -5
-14 -10 -17 -6 -4 -8 -11 -5 -16 9 -14 37 -11 33 3 -3 7 2 19 9 26 8 8 11 23
8 33 -4 13 -2 19 9 19 19 0 20 -5 6 -31 -8 -13 -7 -19 0 -19 6 0 8 -5 4 -12
-4 -7 -3 -8 5 -4 6 4 8 12 5 18 -4 6 -2 13 4 17 10 6 13 16 21 61 1 3 6 -2 12
-10 8 -11 9 -8 5 15 -6 26 -5 28 7 13 12 -15 14 -15 26 0 11 15 11 15 6 -2 -4
-15 -3 -17 9 -7 8 7 12 21 9 32 -5 16 -8 18 -14 7 -8 -11 -12 -6 -11 12 0 3
-8 6 -18 6 -11 0 -17 -2 -15 -4 6 -6 -42 -52 -54 -52 -5 0 -12 6 -14 13 -3 6
-6 3 -6 -7 -1 -11 -4 -16 -7 -13 -10 9 -44 -12 -44 -27 0 -18 -53 -15 -62 4
-4 10 -7 4 -7 -15 -1 -21 -4 -26 -10 -16 -5 7 -13 11 -19 7 -6 -3 -12 -3 -15
1 -2 5 -3 4 -2 -2 1 -5 -1 -19 -6 -30 -7 -18 -8 -18 -8 -2 -1 10 -6 15 -11 12
-6 -4 -8 -10 -5 -15 3 -5 1 -11 -4 -14 -11 -7 -43 52 -36 65 9 14 -10 17 -23
3 -7 -8 -8 -14 -2 -14 5 0 10 -8 9 -17 0 -10 -3 -13 -5 -6 -6 13 -35 6 -45
-10 -4 -6 -18 1 -33 16 -21 21 -27 23 -37 11 -10 -13 -14 -12 -30 2 -17 15
-18 15 -25 -10 -4 -18 -11 -25 -20 -22 -8 3 -14 0 -15 -7 0 -7 -4 -3 -9 8 -5
11 -9 15 -9 8 -1 -7 -8 -10 -16 -7 -8 4 -15 1 -15 -5 0 -7 -13 -4 -35 6 -19 9
-35 23 -35 30 0 8 -4 11 -10 8 -5 -3 -10 0 -10 7 0 10 -2 11 -8 0 -6 -9 -12
-6 -20 13 -12 26 -36 33 -48 14 -4 -8 1 -9 16 -4 17 6 21 3 18 -11 -1 -9 -10
-19 -18 -22 -8 -3 -12 -2 -9 2 4 4 -5 19 -20 34 -14 15 -31 37 -38 47 -11 19
-12 18 -12 -7 -1 -19 -5 -26 -15 -22 -9 3 -16 -2 -19 -13 -2 -10 -3 -6 -1 9 3
22 -1 29 -21 34 -14 3 -22 10 -19 15 3 5 1 9 -5 9 -5 0 -12 -6 -14 -12 -4 -9
-6 -9 -6 -1 -1 6 -10 9 -21 6 -24 -6 -28 22 -5 31 8 3 15 11 14 18 0 10 -2 10
-6 1 -2 -7 -14 -13 -26 -13 -16 0 -18 3 -8 9 7 5 9 11 4 14 -5 3 -15 2 -23 -4
-8 -5 -22 -9 -30 -9 -11 0 -11 3 -2 12 16 16 15 31 0 22 -7 -4 -2 5 12 21 22
25 22 27 5 20 -11 -4 -31 -9 -45 -10 -14 -1 -27 -3 -30 -5 -13 -7 -50 -6 -50
1 0 5 -7 9 -15 9 -8 0 -15 5 -15 10 0 13 6 13 40 -5 29 -15 45 -9 32 11 -13
20 -54 23 -80 6 -25 -16 -25 -16 -20 5 5 17 0 22 -25 27 -24 5 -28 9 -19 18
14 14 16 32 2 23 -5 -3 -18 -1 -27 5 -17 11 -17 11 0 6 9 -3 17 -1 17 4 0 6
-6 10 -12 10 -7 0 -4 7 7 16 18 13 17 14 -15 9 -27 -4 -30 -3 -15 4 12 6 14
10 6 10 -11 1 -10 6 4 21 18 20 18 20 -14 4 -30 -15 -34 -15 -50 0 -10 9 -21
13 -25 9 -4 -5 -6 -1 -4 7 2 8 -4 14 -12 15 -9 0 -15 10 -16 25 0 35 -12 50
-32 43 -15 -6 -15 -5 -4 10 8 9 12 22 9 29 -4 8 -6 7 -6 -4 -1 -25 -18 -22
-27 4 -4 13 -14 28 -23 35 -14 11 -13 12 6 13 12 0 25 5 29 12 4 7 3 8 -5 4
-21 -13 -50 4 -53 32 -2 17 -10 28 -22 30 -11 3 -26 10 -33 18 -11 11 -10 15
4 23 14 7 15 13 6 21 -8 9 -14 7 -22 -9z m154 -241 c8 -12 -23 -6 -37 8 -8 8
-5 9 11 5 12 -3 24 -9 26 -13z m315 -310 c0 -5 -2 -10 -4 -10 -3 0 -8 5 -11
10 -3 6 -1 10 4 10 6 0 11 -4 11 -10z m1110 -90 c0 -5 -2 -10 -4 -10 -3 0 -8
5 -11 10 -3 6 -1 10 4 10 6 0 11 -4 11 -10z m-846 -49 c3 -5 -1 -14 -8 -20
-12 -10 -13 -8 -9 8 6 23 9 25 17 12z m146 -53 c0 -11 -22 -10 -40 2 -11 8 -9
9 13 8 15 -1 27 -6 27 -10z m258 -9 c-2 -6 -8 -10 -13 -10 -5 0 -11 4 -13 10
-2 6 4 11 13 11 9 0 15 -5 13 -11z m112 -14 c0 -8 -4 -15 -10 -15 -5 0 -7 7
-4 15 4 8 8 15 10 15 2 0 4 -7 4 -15z m45 -45 c3 -5 1 -10 -4 -10 -6 0 -11 5
-11 10 0 6 2 10 4 10 3 0 8 -4 11 -10z m56 -15 c6 16 8 17 8 3 1 -10 -8 -22
-18 -28 -18 -9 -19 -7 -17 17 5 39 8 42 14 13 4 -23 5 -24 13 -5z m-211 -9 c0
-2 -9 -6 -20 -9 -11 -3 -18 -1 -14 4 5 9 34 13 34 5z m85 -15 c-8 -14 -25 -14
-25 0 0 5 5 7 10 4 6 -3 10 -1 10 6 0 7 3 10 6 6 3 -3 3 -10 -1 -16z"/>
<path d="M2385 2600 c3 -5 11 -10 16 -10 6 0 7 5 4 10 -3 6 -11 10 -16 10 -6
0 -7 -4 -4 -10z"/>
<path d="M2451 2583 c12 -3 15 -11 11 -25 -3 -14 1 -26 13 -34 18 -14 18 -14
-1 -14 -13 0 -9 -5 15 -17 29 -15 31 -18 15 -24 -17 -7 -17 -8 4 -8 12 -1 22
1 22 3 0 2 3 11 6 20 5 12 0 16 -20 16 -18 0 -24 4 -20 15 4 9 0 15 -10 15 -9
0 -16 6 -16 14 0 15 21 26 50 26 10 0 21 3 23 8 3 4 -20 7 -51 8 -32 0 -50 -1
-41 -3z"/>
<path d="M3380 2560 c0 -5 5 -10 10 -10 6 0 10 5 10 10 0 6 -4 10 -10 10 -5 0
-10 -4 -10 -10z"/>
<path d="M3414 2554 c3 -8 2 -12 -3 -9 -5 3 -12 1 -16 -5 -3 -5 -1 -10 4 -10
6 0 11 -5 11 -11 0 -5 -4 -7 -10 -4 -5 3 -10 -1 -10 -9 0 -9 -5 -16 -12 -16
-6 0 -9 -2 -6 -5 10 -10 37 7 43 26 4 11 11 16 17 13 8 -5 9 -1 5 10 -4 10 -7
22 -7 27 0 5 -5 9 -11 9 -6 0 -8 -7 -5 -16z"/>
<path d="M3440 2556 c0 -9 5 -16 10 -16 6 0 10 4 10 9 0 6 -4 13 -10 16 -5 3
-10 -1 -10 -9z"/>
<path d="M2358 2553 c7 -3 16 -2 19 1 4 3 -2 6 -13 5 -11 0 -14 -3 -6 -6z"/>
<path d="M2506 2551 c-11 -18 23 -35 47 -23 l22 11 -22 0 c-13 1 -23 6 -23 11
0 12 -17 13 -24 1z"/>
<path d="M3330 2520 c0 -11 6 -20 14 -20 21 0 31 21 15 31 -22 14 -29 11 -29
-11z"/>
<path d="M3450 2521 c0 -6 4 -13 10 -16 6 -3 7 1 4 9 -7 18 -14 21 -14 7z"/>
<path d="M2560 2460 c-8 -5 -10 -10 -5 -10 6 0 17 5 25 10 8 5 11 10 5 10 -5
0 -17 -5 -25 -10z"/>
<path d="M2590 2445 c-17 -10 -20 -14 -9 -15 9 0 22 7 29 15 15 18 12 18 -20
0z"/>
<path d="M2508 2433 c7 -3 16 -2 19 1 4 3 -2 6 -13 5 -11 0 -14 -3 -6 -6z"/>
<path d="M2478 2413 c7 -3 16 -2 19 1 4 3 -2 6 -13 5 -11 0 -14 -3 -6 -6z"/>
<path d="M2630 2400 c0 -5 5 -10 10 -10 6 0 10 5 10 10 0 6 -4 10 -10 10 -5 0
-10 -4 -10 -10z"/>
<path d="M2505 2390 c-3 -5 -2 -10 4 -10 5 0 13 5 16 10 3 6 2 10 -4 10 -5 0
-13 -4 -16 -10z"/>
<path d="M2660 2369 c0 -5 5 -7 10 -4 6 3 10 8 10 11 0 2 -4 4 -10 4 -5 0 -10
-5 -10 -11z"/>
<path d="M2486 2344 c-11 -30 -6 -37 14 -19 20 18 21 18 35 -1 14 -18 15 -18
7 5 -10 28 -47 38 -56 15z"/>
<path d="M2566 2331 c-4 -5 -2 -12 3 -15 5 -4 12 -2 15 3 4 5 2 12 -3 15 -5 4
-12 2 -15 -3z"/>
<path d="M2649 2300 c-15 -12 -18 -19 -9 -18 8 2 14 -3 12 -11 -2 -8 3 -11 11
-8 8 3 19 1 24 -4 6 -6 17 -2 28 12 19 20 19 20 -8 14 -15 -4 -35 -4 -44 -1
-15 6 -15 8 -3 16 8 5 23 7 34 4 12 -4 16 -2 12 5 -11 17 -31 13 -57 -9z"/>
<path d="M2535 2280 c3 -5 11 -10 16 -10 6 0 7 5 4 10 -3 6 -11 10 -16 10 -6
0 -7 -4 -4 -10z"/>
<path d="M2758 2263 c7 -3 16 -2 19 1 4 3 -2 6 -13 5 -11 0 -14 -3 -6 -6z"/>
<path d="M2712 2203 c2 -10 12 -19 23 -21 20 -4 20 -4 0 13 l-20 16 20 -5 c11
-3 27 -1 35 4 11 7 5 10 -23 10 -31 0 -38 -3 -35 -17z"/>
<path d="M2854 2179 c-3 -6 -1 -16 4 -21 8 -8 11 -5 9 11 -1 24 -3 25 -13 10z"/>
<path d="M2714 2165 c26 -10 44 -12 55 -5 14 8 13 9 -5 10 -12 0 -37 2 -55 5
l-34 5 39 -15z"/>
<path d="M2710 2144 c0 -2 18 -8 40 -14 25 -7 38 -15 34 -22 -4 -6 -3 -8 3 -5
6 4 13 15 15 24 4 15 -3 18 -44 19 -26 1 -48 0 -48 -2z"/>
<path d="M3945 2080 c-3 -5 -1 -10 4 -10 6 0 11 5 11 10 0 6 -2 10 -4 10 -3 0
-8 -4 -11 -10z"/>
<path d="M2866 2054 c-5 -14 -4 -15 9 -4 17 14 19 20 6 20 -5 0 -12 -7 -15
-16z"/>
<path d="M2906 2052 c-3 -5 1 -9 9 -9 8 0 12 4 9 9 -3 4 -7 8 -9 8 -2 0 -6 -4
-9 -8z"/>
<path d="M3930 2041 c0 -5 7 -15 17 -22 15 -13 15 -12 4 9 -12 23 -21 28 -21
13z"/>
<path d="M3905 2010 c-3 -5 -1 -10 4 -10 6 0 11 5 11 10 0 6 -2 10 -4 10 -3 0
-8 -4 -11 -10z"/>
<path d="M3943 1960 c0 -25 2 -35 4 -22 2 12 2 32 0 45 -2 12 -4 2 -4 -23z"/>
<path d="M3096 1982 c-3 -5 1 -9 9 -9 8 0 12 4 9 9 -3 4 -7 8 -9 8 -2 0 -6 -4
-9 -8z"/>
<path d="M3331 1924 c0 -11 3 -14 6 -6 3 7 2 16 -1 19 -3 4 -6 -2 -5 -13z"/>
<path d="M3675 1920 c-3 -5 -2 -10 4 -10 5 0 13 5 16 10 3 6 2 10 -4 10 -5 0
-13 -4 -16 -10z"/>
<path d="M3566 1885 c-9 -26 -7 -32 5 -12 6 10 9 21 6 23 -2 3 -7 -2 -11 -11z"/>
<path d="M3240 1864 c0 -8 5 -12 10 -9 6 4 8 11 5 16 -9 14 -15 11 -15 -7z"/>
<path d="M3840 1860 c0 -5 5 -10 10 -10 6 0 10 5 10 10 0 6 -4 10 -10 10 -5 0
-10 -4 -10 -10z"/>
<path d="M3930 1820 c0 -5 4 -10 9 -10 6 0 13 5 16 10 3 6 -1 10 -9 10 -9 0
-16 -4 -16 -10z"/>
<path d="M3895 1800 c20 -23 29 -21 19 4 -3 9 -13 16 -22 16 -13 0 -12 -3 3
-20z"/>
<path d="M2283 1627 c-13 -5 -23 -14 -23 -19 0 -4 -7 -8 -15 -8 -28 0 -27 -27
5 -84 18 -31 36 -59 41 -62 5 -3 9 -12 9 -20 0 -24 31 -49 62 -50 27 -2 28 0
15 20 -46 73 -58 98 -63 138 -4 29 -2 48 5 52 15 10 14 33 -1 39 -7 2 -23 0
-35 -6z"/>
<path d="M4270 1508 c0 -15 14 -38 36 -59 70 -67 98 -156 103 -327 4 -123 11
-97 11 39 0 196 -8 229 -76 302 -67 72 -74 77 -74 45z"/>
<path d="M1850 1349 c0 -17 4 -28 10 -24 6 3 10 17 10 31 0 13 -4 24 -10 24
-5 0 -10 -14 -10 -31z"/>
<path d="M1785 1339 c-4 -5 -11 -7 -16 -4 -5 4 -17 1 -26 -4 -15 -9 -16 -10
-2 -11 9 0 21 -10 27 -22 8 -17 11 -18 11 -7 1 9 11 23 23 31 19 13 19 15 5
21 -9 3 -19 2 -22 -4z"/>
<path d="M1700 1300 c0 -5 5 -10 10 -10 6 0 10 -10 10 -22 1 -21 2 -21 11 -5
8 13 7 22 -1 33 -14 16 -30 19 -30 4z"/>
<path d="M1650 1199 c0 -5 5 -7 10 -4 6 3 10 8 10 11 0 2 -4 4 -10 4 -5 0 -10
-5 -10 -11z"/>
<path d="M1400 1160 c0 -5 6 -10 14 -10 8 0 18 5 21 10 3 6 -3 10 -14 10 -12
0 -21 -4 -21 -10z"/>
<path d="M2050 1145 c7 -9 15 -13 17 -11 7 7 -7 26 -19 26 -6 0 -6 -6 2 -15z"/>
<path d="M1577 1118 c2 -5 10 -8 18 -8 8 0 16 3 18 8 3 4 -5 7 -18 7 -13 0
-21 -3 -18 -7z"/>
<path d="M1990 1110 c0 -5 5 -10 11 -10 5 0 7 5 4 10 -3 6 -8 10 -11 10 -2 0
-4 -4 -4 -10z"/>
<path d="M1528 1093 c7 -3 16 -2 19 1 4 3 -2 6 -13 5 -11 0 -14 -3 -6 -6z"/>
<path d="M2200 985 c7 -8 17 -15 22 -15 5 0 3 7 -6 15 -8 8 -18 15 -22 15 -3
0 -1 -7 6 -15z"/>
<path d="M2140 959 c0 -5 5 -7 10 -4 6 3 10 8 10 11 0 2 -4 4 -10 4 -5 0 -10
-5 -10 -11z"/>
<path d="M2260 925 c19 -19 38 -35 42 -35 5 0 -8 16 -28 35 -19 19 -38 35 -42
35 -3 0 9 -16 28 -35z"/>
<path d="M2433 765 c21 -19 41 -35 45 -35 4 0 12 -8 19 -18 11 -19 213 -176
217 -170 2 2 -17 21 -41 44 -23 22 -43 39 -43 37 0 -2 -12 8 -27 22 -16 14
-36 28 -45 31 -9 3 -20 14 -23 25 -4 11 -9 18 -12 15 -3 -3 -14 4 -24 16 -11
11 -19 18 -19 14 0 -3 -14 7 -31 24 -18 16 -37 30 -43 30 -6 0 6 -16 27 -35z"/>
<path d="M880 710 c-9 -6 -10 -10 -3 -10 6 0 15 5 18 10 8 12 4 12 -15 0z"/>
<path d="M680 706 c0 -2 8 -10 18 -17 15 -13 16 -12 3 4 -13 16 -21 21 -21 13z"/>
<path d="M4261 683 c0 -12 -5 -25 -11 -28 -5 -3 -10 -14 -10 -23 1 -11 6 -8
16 11 8 16 13 36 11 45 -3 12 -5 11 -6 -5z"/>
<path d="M610 686 c0 -2 8 -10 18 -17 15 -13 16 -12 3 4 -13 16 -21 21 -21 13z"/>
<path d="M663 625 c0 -8 4 -12 9 -9 5 3 6 10 3 15 -9 13 -12 11 -12 -6z"/>
<path d="M590 626 c0 -2 8 -10 18 -17 15 -13 16 -12 3 4 -13 16 -21 21 -21 13z"/>
<path d="M620 626 c0 -2 8 -10 18 -17 15 -13 16 -12 3 4 -13 16 -21 21 -21 13z"/>
<path d="M705 580 c-3 -6 1 -7 9 -4 18 7 21 14 7 14 -6 0 -13 -4 -16 -10z"/>
<path d="M780 576 c0 -2 8 -10 18 -17 15 -13 16 -12 3 4 -13 16 -21 21 -21 13z"/>
<path d="M2730 531 c0 -9 44 -41 56 -41 3 0 1 6 -5 13 -6 8 -8 16 -5 20 3 3
-4 3 -17 0 -15 -4 -20 -3 -15 5 4 7 2 12 -3 12 -6 0 -11 -4 -11 -9z"/>
<path d="M2800 483 c0 -4 17 -19 37 -33 33 -22 162 -116 188 -137 25 -21 74
-53 79 -53 3 0 6 5 6 11 0 5 -4 8 -8 5 -5 -3 -15 4 -22 15 -8 10 -19 19 -24
19 -5 0 -17 9 -27 21 -9 11 -20 20 -23 20 -22 -3 -27 1 -22 15 4 11 2 15 -7
11 -16 -6 -90 47 -80 57 4 4 -1 4 -12 0 -15 -6 -17 -4 -12 10 4 11 3 15 -4 11
-6 -4 -18 0 -27 7 -25 22 -42 30 -42 21z"/>
<path d="M560 476 c0 -2 8 -10 18 -17 15 -13 16 -12 3 4 -13 16 -21 21 -21 13z"/>
<path d="M480 435 c13 -14 26 -25 28 -25 3 0 -5 11 -18 25 -13 14 -26 25 -28
25 -3 0 5 -11 18 -25z"/>
<path d="M460 391 c0 -6 4 -13 10 -16 6 -3 7 1 4 9 -7 18 -14 21 -14 7z"/>
<path d="M435 339 c-4 -6 -4 -13 -1 -16 3 -4 6 -1 6 6 0 7 5 9 10 6 6 -3 10
-1 10 4 0 14 -17 14 -25 0z"/>
<path d="M540 336 c0 -2 8 -10 18 -17 15 -13 16 -12 3 4 -13 16 -21 21 -21 13z"/>
<path d="M300 285 c13 -14 26 -25 28 -25 3 0 -5 11 -18 25 -13 14 -26 25 -28
25 -3 0 5 -11 18 -25z"/>
<path d="M370 276 c0 -2 8 -10 18 -17 15 -13 16 -12 3 4 -13 16 -21 21 -21 13z"/>
<path d="M245 250 c10 -11 20 -20 23 -20 3 0 -3 9 -13 20 -10 11 -20 20 -23
20 -3 0 3 -9 13 -20z"/>
<path d="M210 256 c0 -2 8 -10 18 -17 15 -13 16 -12 3 4 -13 16 -21 21 -21 13z"/>
<path d="M360 256 c0 -2 8 -10 18 -17 15 -13 16 -12 3 4 -13 16 -21 21 -21 13z"/>
<path d="M3120 251 c0 -10 19 -25 25 -20 1 2 -3 10 -11 17 -8 7 -14 8 -14 3z"/>
<path d="M116 221 c-3 -5 1 -11 9 -15 8 -3 15 -1 15 4 0 13 -18 22 -24 11z"/>
<path d="M154 191 c4 -6 16 -16 28 -22 15 -8 18 -8 14 0 -4 6 -16 16 -28 22
-15 8 -18 8 -14 0z"/>
<path d="M3202 193 c-13 -5 67 -73 87 -73 5 0 12 -6 14 -12 4 -10 6 -10 6 0 1
7 -10 18 -24 24 -14 6 -25 14 -25 18 0 4 -12 12 -26 18 -14 7 -22 17 -19 22 7
11 6 11 -13 3z"/>
<path d="M235 140 c3 -5 8 -10 11 -10 2 0 4 5 4 10 0 6 -5 10 -11 10 -5 0 -7
-4 -4 -10z"/>
<path d="M270 125 c0 -6 122 -76 126 -72 4 4 -110 77 -120 77 -3 0 -6 -2 -6
-5z"/>
<path d="M3330 90 c0 -6 4 -10 9 -10 5 0 16 -6 23 -14 17 -17 109 -66 123 -66
5 0 2 5 -7 11 -10 5 -21 9 -24 9 -4 -1 -10 2 -13 7 -12 16 -111 72 -111 63z"/>
<path d="M410 41 c0 -5 7 -12 16 -15 14 -5 15 -4 4 9 -14 17 -20 19 -20 6z"/>
<path d="M450 10 c0 -5 5 -10 11 -10 5 0 7 5 4 10 -3 6 -8 10 -11 10 -2 0 -4
-4 -4 -10z"/>
</g>
</svg>
