<?xml version="1.0" standalone="no"?>
<!DOCTYPE svg PUBLIC "-//W3C//DTD SVG 20010904//EN"
 "http://www.w3.org/TR/2001/REC-SVG-20010904/DTD/svg10.dtd">
<svg version="1.0" xmlns="http://www.w3.org/2000/svg"
 width="460.000000pt" height="460.000000pt" viewBox="0 0 460.000000 460.000000"
 preserveAspectRatio="xMidYMid meet">
<metadata>
Created by potrace 1.14, written by Peter Selinger 2001-2017
</metadata>
<g transform="translate(0.000000,460.000000) scale(0.100000,-0.100000)"
fill="#000000" stroke="none">
<path d="M0 2300 l0 -2300 2300 0 2300 0 0 2300 0 2300 -2300 0 -2300 0 0
-2300z m3858 525 c2 -280 0 -528 -3 -550 l-5 -40 -458 2 c-251 2 -463 3 -469
3 -9 0 -13 22 -13 75 l0 74 -77 3 -78 3 0 235 0 235 78 3 77 3 0 74 0 75 315
0 315 0 0 160 0 161 158 -3 157 -3 3 -510z m-1738 -432 l0 -158 -155 0 -155 0
0 158 0 157 155 0 155 0 0 -157z m1420 -721 l0 -157 135 3 c190 6 183 9 183
-83 l0 -75 -159 0 -159 0 0 -160 0 -161 -157 3 -158 3 -1 155 -1 155 -157 3
-157 3 3 77 3 77 154 2 153 2 -1 129 c-1 71 1 141 5 156 l6 26 154 0 154 0 0
-158z m-1100 -82 l0 -80 37 6 c20 3 56 3 80 -1 l43 -6 0 -309 0 -309 -42 -6
c-24 -4 -95 -5 -158 -3 l-115 3 -3 313 c-1 171 -3 312 -5 313 -34 7 -96 9
-123 5 l-34 -7 0 -314 0 -313 -152 1 -153 2 -5 314 -5 314 -45 4 c-24 3 -59 2
-77 -2 l-33 -6 0 -312 0 -312 -48 -3 c-26 -1 -60 0 -77 3 l-30 5 0 390 0 390
473 0 472 0 0 -80z"/>
<path d="M3070 2628 l0 -238 235 0 235 0 0 238 0 237 -235 0 -235 0 0 -237z"/>
</g>
</svg>
