<?xml version="1.0" standalone="no"?>
<!DOCTYPE svg PUBLIC "-//W3C//DTD SVG 20010904//EN"
 "http://www.w3.org/TR/2001/REC-SVG-20010904/DTD/svg10.dtd">
<svg version="1.0" xmlns="http://www.w3.org/2000/svg"
 width="460.000000pt" height="460.000000pt" viewBox="0 0 460.000000 460.000000"
 preserveAspectRatio="xMidYMid meet">
<metadata>
Created by potrace 1.14, written by Peter Selinger 2001-2017
</metadata>
<g transform="translate(0.000000,460.000000) scale(0.100000,-0.100000)"
fill="#000000" stroke="none">
<path d="M985 4589 c-156 -23 -340 -94 -479 -187 -261 -173 -451 -479 -495
-796 -15 -107 -15 -2505 0 -2612 35 -254 162 -501 351 -680 169 -160 399 -271
632 -303 107 -15 2505 -15 2612 0 254 35 501 162 680 351 160 169 271 399 303
632 15 107 15 2505 0 2612 -70 507 -476 913 -983 983 -94 13 -2530 13 -2621 0z
m2873 -1774 c1 -286 0 -533 -3 -550 l-5 -30 -457 2 c-252 2 -464 3 -470 3 -9
0 -13 22 -13 75 l0 74 -77 3 -78 3 0 235 0 235 78 3 77 3 0 74 0 75 315 0 315
0 0 160 0 161 158 -3 157 -3 3 -520z m-1738 -422 l0 -158 -155 0 -155 0 0 158
0 157 155 0 155 0 0 -157z m1420 -721 l0 -157 135 3 c190 6 183 9 183 -83 l0
-75 -159 0 -159 0 0 -160 0 -160 -154 0 c-146 0 -155 1 -161 20 -4 11 -5 82
-4 158 l3 137 -158 3 -157 3 3 77 3 77 154 2 153 2 -1 129 c-1 71 1 141 5 156
l6 26 154 0 154 0 0 -158z m-1100 -81 l0 -80 45 6 c25 3 61 2 80 -1 l35 -7 0
-308 0 -309 -26 -6 c-30 -8 -261 -6 -281 1 -10 4 -13 73 -13 314 0 170 -1 309
-2 310 -38 7 -97 10 -124 5 l-34 -7 0 -313 0 -314 -152 2 -153 1 -5 314 -5
314 -45 4 c-24 3 -59 2 -77 -2 l-33 -6 0 -309 0 -308 -50 -7 c-27 -4 -62 -4
-77 -1 l-28 6 2 388 c2 213 3 388 3 390 0 1 211 2 470 2 l470 0 0 -79z"/>
<path d="M3070 2628 l0 -238 235 0 235 0 0 238 0 237 -235 0 -235 0 0 -237z"/>
</g>
</svg>
